<svg width="22" height="24" viewBox="0 0 22 24" fill="none" xmlns="http://www.w3.org/2000/svg">
<path d="M2.04723 5.04911L2.04724 5.04913L2.05096 5.04697L9.24368 0.863551C10.2356 0.300324 11.4706 0.300385 12.4625 0.863733C12.463 0.864014 12.4635 0.864294 12.464 0.864575L19.6846 5.0465C19.6849 5.04665 19.6851 5.04681 19.6854 5.04696C20.6447 5.60801 21.2647 6.68309 21.2647 7.84219V16.1502C21.2647 17.3082 20.6459 18.3819 19.6587 18.9433L19.6586 18.9432L19.6549 18.9454L12.4607 23.1297C11.9517 23.4249 11.4189 23.5588 10.8529 23.5588C10.281 23.5588 9.72325 23.4222 9.25417 23.135L9.25424 23.1349L9.24439 23.1292L2.05238 18.9768C1.05461 18.3812 0.441176 17.3321 0.441176 16.1807V7.84219C0.441176 6.68415 1.06001 5.6105 2.04723 5.04911Z" fill="url(#paint0_linear_114_25836)" stroke="#FFF72E" stroke-width="0.882353"/>
<path d="M11.872 9.604C11.808 9.308 11.696 9.088 11.536 8.944C11.376 8.792 11.148 8.716 10.852 8.716C10.396 8.716 10.068 8.916 9.868 9.316C9.668 9.708 9.564 10.332 9.556 11.188C9.732 10.908 9.984 10.688 10.312 10.528C10.648 10.368 11.016 10.288 11.416 10.288C12.2 10.288 12.828 10.536 13.3 11.032C13.78 11.528 14.02 12.22 14.02 13.108C14.02 13.692 13.9 14.204 13.66 14.644C13.428 15.084 13.084 15.428 12.628 15.676C12.18 15.924 11.648 16.048 11.032 16.048C9.8 16.048 8.944 15.664 8.464 14.896C7.984 14.12 7.744 13.008 7.744 11.56C7.744 10.04 7.996 8.912 8.5 8.176C9.012 7.432 9.828 7.06 10.948 7.06C11.548 7.06 12.052 7.18 12.46 7.42C12.876 7.652 13.188 7.96 13.396 8.344C13.612 8.728 13.74 9.148 13.78 9.604H11.872ZM10.924 11.908C10.58 11.908 10.292 12.012 10.06 12.22C9.836 12.42 9.724 12.708 9.724 13.084C9.724 13.468 9.828 13.768 10.036 13.984C10.252 14.2 10.556 14.308 10.948 14.308C11.3 14.308 11.576 14.204 11.776 13.996C11.984 13.78 12.088 13.488 12.088 13.12C12.088 12.744 11.988 12.448 11.788 12.232C11.588 12.016 11.3 11.908 10.924 11.908Z" fill="white"/>
<defs>
<linearGradient id="paint0_linear_114_25836" x1="10.8529" y1="24" x2="10.8529" y2="0" gradientUnits="userSpaceOnUse">
<stop stop-color="#732700"/>
<stop offset="1" stop-color="#130404"/>
</linearGradient>
</defs>
</svg>
