<svg width="22" height="24" viewBox="0 0 22 24" fill="none" xmlns="http://www.w3.org/2000/svg">
<path d="M2.04723 5.04911L2.04724 5.04913L2.05096 5.04697L9.24368 0.863551C10.2356 0.300324 11.4706 0.300385 12.4625 0.863733C12.463 0.864014 12.4635 0.864294 12.464 0.864575L19.6846 5.0465C19.6849 5.04665 19.6851 5.04681 19.6854 5.04696C20.6447 5.60801 21.2647 6.68309 21.2647 7.84219V16.1502C21.2647 17.3082 20.6459 18.3819 19.6587 18.9433L19.6586 18.9432L19.6549 18.9454L12.4607 23.1297C11.9517 23.4249 11.4189 23.5588 10.8529 23.5588C10.281 23.5588 9.72325 23.4222 9.25417 23.135L9.25424 23.1349L9.24439 23.1292L2.05238 18.9768C1.05461 18.3812 0.441176 17.3321 0.441176 16.1807V7.84219C0.441176 6.68415 1.06001 5.6105 2.04723 5.04911Z" fill="url(#paint0_linear_114_25824)" stroke="#FFF72E" stroke-width="0.882353"/>
<path d="M7.468 14.356C7.74 14.14 7.864 14.04 7.84 14.056C8.624 13.408 9.24 12.876 9.688 12.46C10.144 12.044 10.528 11.608 10.84 11.152C11.152 10.696 11.308 10.252 11.308 9.82C11.308 9.492 11.232 9.236 11.08 9.052C10.928 8.868 10.7 8.776 10.396 8.776C10.092 8.776 9.852 8.892 9.676 9.124C9.508 9.348 9.424 9.668 9.424 10.084H7.444C7.46 9.404 7.604 8.836 7.876 8.38C8.156 7.924 8.52 7.588 8.968 7.372C9.424 7.156 9.928 7.048 10.48 7.048C11.432 7.048 12.148 7.292 12.628 7.78C13.116 8.268 13.36 8.904 13.36 9.688C13.36 10.544 13.068 11.34 12.484 12.076C11.9 12.804 11.156 13.516 10.252 14.212H13.492V15.88H7.468V14.356Z" fill="white"/>
<defs>
<linearGradient id="paint0_linear_114_25824" x1="10.8529" y1="24" x2="10.8529" y2="0" gradientUnits="userSpaceOnUse">
<stop stop-color="#732700"/>
<stop offset="1" stop-color="#130404"/>
</linearGradient>
</defs>
</svg>
