<svg width="22" height="24" viewBox="0 0 22 24" fill="none" xmlns="http://www.w3.org/2000/svg">
<path d="M2.04723 5.04911L2.04724 5.04913L2.05096 5.04697L9.24368 0.863551C10.2356 0.300324 11.4706 0.300385 12.4625 0.863733C12.463 0.864014 12.4635 0.864294 12.464 0.864575L19.6846 5.0465C19.6849 5.04665 19.6851 5.04681 19.6854 5.04696C20.6447 5.60801 21.2647 6.68309 21.2647 7.84219V16.1502C21.2647 17.3082 20.6459 18.3819 19.6587 18.9433L19.6586 18.9432L19.6549 18.9454L12.4607 23.1297C11.9517 23.4249 11.4189 23.5588 10.8529 23.5588C10.281 23.5588 9.72325 23.4222 9.25417 23.135L9.25424 23.1349L9.24439 23.1292L2.05238 18.9768C1.05461 18.3812 0.441176 17.3321 0.441176 16.1807V7.84219C0.441176 6.68415 1.06001 5.6105 2.04723 5.04911Z" fill="url(#paint0_linear_114_25830)" stroke="#FFF72E" stroke-width="0.882353"/>
<path d="M7.588 14.44V12.784L11.38 7.36H13.672V12.664H14.656V14.44H13.672V16H11.62V14.44H7.588ZM11.764 9.616L9.748 12.664H11.764V9.616Z" fill="white"/>
<defs>
<linearGradient id="paint0_linear_114_25830" x1="10.8529" y1="24" x2="10.8529" y2="0" gradientUnits="userSpaceOnUse">
<stop stop-color="#732700"/>
<stop offset="1" stop-color="#130404"/>
</linearGradient>
</defs>
</svg>
