<svg width="22" height="24" viewBox="0 0 22 24" fill="none" xmlns="http://www.w3.org/2000/svg">
<path d="M2.04723 5.04911L2.04724 5.04913L2.05096 5.04697L9.24368 0.863551C10.2356 0.300324 11.4706 0.300385 12.4625 0.863733C12.463 0.864014 12.4635 0.864294 12.464 0.864575L19.6846 5.0465C19.6849 5.04665 19.6851 5.04681 19.6854 5.04696C20.6447 5.60801 21.2647 6.68309 21.2647 7.84219V16.1502C21.2647 17.3082 20.6459 18.3819 19.6587 18.9433L19.6586 18.9432L19.6549 18.9454L12.4607 23.1297C11.9517 23.4249 11.4189 23.5588 10.8529 23.5588C10.281 23.5588 9.72325 23.4222 9.25417 23.135L9.25424 23.1349L9.24439 23.1292L2.05238 18.9768C1.05461 18.3812 0.441176 17.3321 0.441176 16.1807V7.84219C0.441176 6.68415 1.06001 5.6105 2.04723 5.04911Z" fill="url(#paint0_linear_114_25833)" stroke="#FFF72E" stroke-width="0.882353"/>
<path d="M13.708 9.028H9.964V10.684C10.124 10.508 10.348 10.364 10.636 10.252C10.924 10.14 11.236 10.084 11.572 10.084C12.172 10.084 12.668 10.22 13.06 10.492C13.46 10.764 13.752 11.116 13.936 11.548C14.12 11.98 14.212 12.448 14.212 12.952C14.212 13.888 13.948 14.632 13.42 15.184C12.892 15.728 12.148 16 11.188 16C10.548 16 9.992 15.892 9.52 15.676C9.048 15.452 8.684 15.144 8.428 14.752C8.172 14.36 8.032 13.908 8.008 13.396H10.012C10.06 13.644 10.176 13.852 10.36 14.02C10.544 14.18 10.796 14.26 11.116 14.26C11.492 14.26 11.772 14.14 11.956 13.9C12.14 13.66 12.232 13.34 12.232 12.94C12.232 12.548 12.136 12.248 11.944 12.04C11.752 11.832 11.472 11.728 11.104 11.728C10.832 11.728 10.608 11.796 10.432 11.932C10.256 12.06 10.14 12.232 10.084 12.448H8.104V7.228H13.708V9.028Z" fill="white"/>
<defs>
<linearGradient id="paint0_linear_114_25833" x1="10.8529" y1="24" x2="10.8529" y2="0" gradientUnits="userSpaceOnUse">
<stop stop-color="#732700"/>
<stop offset="1" stop-color="#130404"/>
</linearGradient>
</defs>
</svg>
