<svg width="22" height="24" viewBox="0 0 22 24" fill="none" xmlns="http://www.w3.org/2000/svg">
<path d="M2.04723 5.04911L2.04724 5.04913L2.05096 5.04697L9.24368 0.863551C10.2356 0.300324 11.4706 0.300385 12.4625 0.863733C12.463 0.864014 12.4635 0.864294 12.464 0.864575L19.6846 5.0465C19.6849 5.04665 19.6851 5.04681 19.6854 5.04696C20.6447 5.60801 21.2647 6.68309 21.2647 7.84219V16.1502C21.2647 17.3082 20.6459 18.3819 19.6587 18.9433L19.6586 18.9432L19.6549 18.9454L12.4607 23.1297C11.9517 23.4249 11.4189 23.5588 10.8529 23.5588C10.281 23.5588 9.72325 23.4222 9.25417 23.135L9.25424 23.1349L9.24439 23.1292L2.05238 18.9768C1.05461 18.3812 0.441176 17.3321 0.441176 16.1807V7.84219C0.441176 6.68415 1.06001 5.6105 2.04723 5.04911Z" fill="url(#paint0_linear_114_25827)" stroke="#FFF72E" stroke-width="0.882353"/>
<path d="M7.612 9.712C7.644 8.856 7.924 8.196 8.452 7.732C8.98 7.268 9.696 7.036 10.6 7.036C11.2 7.036 11.712 7.14 12.136 7.348C12.568 7.556 12.892 7.84 13.108 8.2C13.332 8.56 13.444 8.964 13.444 9.412C13.444 9.94 13.312 10.372 13.048 10.708C12.784 11.036 12.476 11.26 12.124 11.38V11.428C12.58 11.58 12.94 11.832 13.204 12.184C13.468 12.536 13.6 12.988 13.6 13.54C13.6 14.036 13.484 14.476 13.252 14.86C13.028 15.236 12.696 15.532 12.256 15.748C11.824 15.964 11.308 16.072 10.708 16.072C9.748 16.072 8.98 15.836 8.404 15.364C7.836 14.892 7.536 14.18 7.504 13.228H9.496C9.504 13.58 9.604 13.86 9.796 14.068C9.988 14.268 10.268 14.368 10.636 14.368C10.948 14.368 11.188 14.28 11.356 14.104C11.532 13.92 11.62 13.68 11.62 13.384C11.62 13 11.496 12.724 11.248 12.556C11.008 12.38 10.62 12.292 10.084 12.292H9.7V10.624H10.084C10.492 10.624 10.82 10.556 11.068 10.42C11.324 10.276 11.452 10.024 11.452 9.664C11.452 9.376 11.372 9.152 11.212 8.992C11.052 8.832 10.832 8.752 10.552 8.752C10.248 8.752 10.02 8.844 9.868 9.028C9.724 9.212 9.64 9.44 9.616 9.712H7.612Z" fill="white"/>
<defs>
<linearGradient id="paint0_linear_114_25827" x1="10.8529" y1="24" x2="10.8529" y2="0" gradientUnits="userSpaceOnUse">
<stop stop-color="#732700"/>
<stop offset="1" stop-color="#130404"/>
</linearGradient>
</defs>
</svg>
