<svg width="32" height="32" viewBox="0 0 32 32" fill="none" xmlns="http://www.w3.org/2000/svg">
<g clip-path="url(#clip0_130_29530)">
<path d="M31.7853 12.6454C31.5755 12.289 31.2395 12.0356 30.8391 11.9319L23.2254 9.95975V1.54871C23.2254 0.694897 22.5307 0.000335693 21.677 0.000335693H10.3222C9.46845 0.000335693 8.77382 0.694897 8.77382 1.54871V9.16369L1.04521 11.8187C0.23784 12.0961 -0.193347 12.9786 0.0839028 13.7862L5.44983 29.4062C5.5842 29.7974 5.86283 30.1128 6.23452 30.2943C6.44939 30.3993 6.68051 30.4523 6.91295 30.4523C7.08233 30.4523 7.25245 30.4242 7.41733 30.3676L11.3255 29.025C12.1501 30.7809 13.9346 32.0001 15.9995 32.0001C17.875 32.0001 19.5196 30.9944 20.4235 29.4942L25.9212 30.9181C26.0507 30.9517 26.1818 30.9683 26.3121 30.9683C26.5848 30.9683 26.8537 30.8956 27.0948 30.7537C27.4512 30.544 27.7047 30.2079 27.8083 29.8075L31.9496 13.8192C32.0535 13.4187 31.9951 13.0019 31.7853 12.6454ZM23.2254 17.1771L23.6969 16.8202L25.2575 20.6162L22.0645 23.1659L20.604 19.6132H21.677C22.5307 19.6132 23.2254 18.9186 23.2254 18.0648V17.1771ZM9.80607 1.54871C9.80607 1.26415 10.0376 1.03258 10.3222 1.03258H21.6769C21.9615 1.03258 22.193 1.26415 22.193 1.54871V18.0647C22.193 18.3492 21.9615 18.5808 21.6769 18.5808H10.3222C10.0376 18.5808 9.80607 18.3492 9.80607 18.0647V1.54871ZM18.0641 26.8388C18.0641 27.9772 17.138 28.9033 15.9996 28.9033C14.8612 28.9033 13.9351 27.9772 13.9351 26.8388C13.9351 25.7005 14.8612 24.7743 15.9996 24.7743C17.138 24.7743 18.0641 25.7005 18.0641 26.8388ZM15.4834 22.7432V23.7859C15.0137 23.8651 14.5798 24.0504 14.2068 24.3162L13.4698 23.5791C14.0408 23.1349 14.7308 22.8375 15.4834 22.7432ZM12.7399 24.309L13.4769 25.046C13.2111 25.419 13.0258 25.8529 12.9467 26.3227H11.904C11.9983 25.57 12.2957 24.88 12.7399 24.309ZM12.9467 27.355C13.0259 27.8247 13.2111 28.2586 13.4769 28.6316L12.7399 29.3686C12.2957 28.7976 11.9984 28.1076 11.904 27.3549H12.9467V27.355ZM14.2068 29.3615C14.5797 29.6273 15.0137 29.8126 15.4834 29.8918V30.9345C14.7307 30.8401 14.0408 30.5428 13.4697 30.0986L14.2068 29.3615ZM16.5157 29.8918C16.9854 29.8126 17.4193 29.6273 17.7923 29.3615L18.5294 30.0986C17.9584 30.5428 17.2684 30.8401 16.5156 30.9345L16.5157 29.8918ZM18.5223 28.6316C18.7881 28.2587 18.9734 27.8247 19.0526 27.355H20.0952C20.0009 28.1076 19.7036 28.7976 19.2594 29.3687L18.5223 28.6316ZM19.0526 26.3227C18.9734 25.853 18.7882 25.4191 18.5223 25.0461L19.2594 24.3091C19.7036 24.8801 20.0009 25.5701 20.0952 26.3228L19.0526 26.3227ZM17.7924 24.3162C17.4194 24.0504 16.9855 23.865 16.5157 23.7859V22.7432C17.2684 22.8375 17.9584 23.1349 18.5295 23.5791L17.7924 24.3162ZM10.3222 19.613H11.6915L10.8578 21.3192C10.7722 21.4945 10.6235 21.6258 10.4393 21.6891C10.255 21.7524 10.0568 21.7402 9.88157 21.6546L7.5532 20.5169C6.9402 20.2174 6.48045 19.697 6.25876 19.0517C6.02433 18.3692 6.38883 17.6232 7.0712 17.3889C7.40182 17.2753 7.75689 17.2972 8.07095 17.4507L8.77388 17.7759V18.0647C8.77382 18.9185 9.46851 19.613 10.3222 19.613ZM7.08208 29.3912C6.9517 29.436 6.81164 29.4273 6.68783 29.3668C6.56395 29.3063 6.47114 29.2012 6.42626 29.0708L1.06028 13.4507C0.967838 13.1816 1.11159 12.8873 1.38065 12.7949L8.77388 10.2551V16.6385L8.51876 16.5206C7.95832 16.2483 7.32539 16.2101 6.73583 16.4125C5.51514 16.8319 4.86314 18.1662 5.28245 19.3869C5.59377 20.293 6.23926 21.0237 7.10014 21.4443L9.42851 22.582C9.67313 22.7015 9.93613 22.7618 10.2006 22.7618C10.3934 22.7618 10.5869 22.7297 10.7746 22.6653C11.2196 22.5124 11.5786 22.1953 11.7853 21.7724L12.8403 19.6131H15.5205L14.9584 21.7832C12.6098 22.2661 10.8382 24.3495 10.8382 26.8388C10.8382 27.2563 10.8893 27.6619 10.9834 28.051L7.08208 29.3912ZM30.9505 13.5603L26.8092 29.5487C26.7747 29.6822 26.6902 29.7942 26.5714 29.8641C26.4525 29.934 26.3137 29.9535 26.1802 29.9189L20.8704 28.5435C21.0579 28.0095 21.1609 27.4362 21.1609 26.8389C21.1609 24.0105 18.8737 21.7072 16.0518 21.679L16.5869 19.6131H19.4879L21.6332 24.8313L26.5066 20.9398L24.1422 15.1886L23.2254 15.8826V11.0262L30.5803 12.9312C30.7138 12.9658 30.8258 13.0503 30.8958 13.1691C30.9656 13.2878 30.9851 13.4267 30.9505 13.5603Z" fill="white"/>
<path d="M26.5652 14.0236L28.5637 14.5413L28.0462 16.5399L29.0454 16.7987L29.8218 13.8009L26.8241 13.0244L26.5652 14.0236Z" fill="white"/>
<path d="M25.1989 27.5318L23.2004 27.0141L22.9416 28.0135L25.9394 28.79L26.7159 25.7921L25.7166 25.5333L25.1989 27.5318Z" fill="white"/>
<path d="M11.8707 10.4816V10.5624C11.8707 11.8531 12.9208 12.9032 14.2115 12.9032C14.292 12.9032 14.372 12.8992 14.4513 12.8911V12.9032C14.4513 13.4724 14.9144 13.9355 15.4835 13.9355H16.5158C17.085 13.9355 17.548 13.4724 17.548 12.9032V12.8911C17.6273 12.8992 17.7073 12.9032 17.7878 12.9032C19.0785 12.9032 20.1287 11.8531 20.1287 10.5624V10.4816C20.1287 9.92311 19.9285 9.38205 19.5651 8.95811L17.2603 6.26918C17.022 5.99111 16.7176 5.80186 16.38 5.72199C15.7792 5.57974 15.1567 5.78186 14.7558 6.24955L12.4342 8.95805C12.0708 9.38205 11.8707 9.92305 11.8707 10.4816ZM12.9029 10.4816C12.9029 10.1694 13.0148 9.86693 13.218 9.62986L15.5397 6.92136C15.688 6.7483 15.9187 6.67361 16.1423 6.72655C16.2642 6.7553 16.3828 6.83149 16.4767 6.94093L18.7814 9.62986C18.9846 9.86686 19.0965 10.1693 19.0965 10.4815V10.5623C19.0965 11.2839 18.5095 11.8709 17.7879 11.8709C17.6003 11.8709 17.418 11.8312 17.2459 11.7529C17.086 11.6802 16.9003 11.6936 16.7527 11.7886C16.6051 11.8836 16.5159 12.0471 16.5159 12.2226V12.9032H15.4837V12.2227C15.4837 12.0472 15.3944 11.8837 15.2468 11.7887C15.1622 11.7343 15.0652 11.7066 14.9675 11.7066C14.8948 11.7066 14.8219 11.722 14.7537 11.753C14.5817 11.8313 14.3993 11.8711 14.2117 11.8711C13.4901 11.8711 12.9031 11.2839 12.9031 10.5624V10.4816H12.9029Z" fill="white"/>
<path d="M11.8706 3.09687H13.9351V2.06462H10.8384V5.16137H11.8706V3.09687Z" fill="white"/>
<path d="M13.9351 16.5161H11.8706V14.4516H10.8384V17.5483H13.9351V16.5161Z" fill="white"/>
<path d="M20.1287 5.16137H21.1609V2.06462H18.0642V3.09687H20.1287V5.16137Z" fill="white"/>
<path d="M20.1287 16.5161H18.0642V17.5483H21.1609V14.4516H20.1287V16.5161Z" fill="white"/>
<path d="M5.46848 13.5734L5.13305 12.5971L2.2043 13.6033L3.21036 16.532L4.18667 16.1967L3.51592 14.2442L5.46848 13.5734Z" fill="white"/>
<path d="M7.87573 26.9354L7.20504 24.9829L6.22873 25.3183L7.23491 28.2471L10.1637 27.2409L9.82822 26.2647L7.87573 26.9354Z" fill="white"/>
</g>
<defs>
<clipPath id="clip0_130_29530">
<rect width="32" height="32" fill="white"/>
</clipPath>
</defs>
</svg>
