<svg width="32" height="32" viewBox="0 0 32 32" fill="none" xmlns="http://www.w3.org/2000/svg">
<g clip-path="url(#clip0_130_29575)">
<path d="M24.7316 9.32297C25.0152 9.32297 25.2452 9.09301 25.2452 8.80934C25.2452 8.52567 25.0152 8.29572 24.7316 8.29572C24.4479 8.29572 24.2179 8.52567 24.2179 8.80934C24.2179 9.09301 24.4479 9.32297 24.7316 9.32297Z" fill="white"/>
<path d="M25.2452 11.3774C25.5289 11.3774 25.7588 11.1474 25.7588 10.8638C25.7588 10.5801 25.5289 10.3501 25.2452 10.3501C24.9615 10.3501 24.7316 10.5801 24.7316 10.8638C24.7316 11.1474 24.9615 11.3774 25.2452 11.3774Z" fill="white"/>
<path d="M25.2452 13.4319C25.5289 13.4319 25.7588 13.2019 25.7588 12.9183C25.7588 12.6346 25.5289 12.4046 25.2452 12.4046C24.9615 12.4046 24.7316 12.6346 24.7316 12.9183C24.7316 13.2019 24.9615 13.4319 25.2452 13.4319Z" fill="white"/>
<path d="M24.2179 14.9727C24.5016 14.9727 24.7316 14.7428 24.7316 14.4591C24.7316 14.1755 24.5016 13.9455 24.2179 13.9455C23.9343 13.9455 23.7043 14.1755 23.7043 14.4591C23.7043 14.7428 23.9343 14.9727 24.2179 14.9727Z" fill="white"/>
<path d="M22.6771 16.5136C22.9607 16.5136 23.1907 16.2837 23.1907 16C23.1907 15.7163 22.9607 15.4864 22.6771 15.4864C22.3934 15.4864 22.1634 15.7163 22.1634 16C22.1634 16.2837 22.3934 16.5136 22.6771 16.5136Z" fill="white"/>
<path d="M7.26837 9.32297C7.55204 9.32297 7.782 9.09301 7.782 8.80934C7.782 8.52567 7.55204 8.29572 7.26837 8.29572C6.98471 8.29572 6.75475 8.52567 6.75475 8.80934C6.75475 9.09301 6.98471 9.32297 7.26837 9.32297Z" fill="white"/>
<path d="M6.75475 11.3774C7.03842 11.3774 7.26837 11.1474 7.26837 10.8638C7.26837 10.5801 7.03842 10.3501 6.75475 10.3501C6.47108 10.3501 6.24112 10.5801 6.24112 10.8638C6.24112 11.1474 6.47108 11.3774 6.75475 11.3774Z" fill="white"/>
<path d="M6.75475 13.4319C7.03842 13.4319 7.26837 13.2019 7.26837 12.9183C7.26837 12.6346 7.03842 12.4046 6.75475 12.4046C6.47108 12.4046 6.24112 12.6346 6.24112 12.9183C6.24112 13.2019 6.47108 13.4319 6.75475 13.4319Z" fill="white"/>
<path d="M7.782 14.9727C8.06567 14.9727 8.29563 14.7428 8.29563 14.4591C8.29563 14.1755 8.06567 13.9455 7.782 13.9455C7.49834 13.9455 7.26838 14.1755 7.26838 14.4591C7.26838 14.7428 7.49834 14.9727 7.782 14.9727Z" fill="white"/>
<path d="M9.32287 16.5136C9.60654 16.5136 9.8365 16.2837 9.8365 16C9.8365 15.7163 9.60654 15.4864 9.32287 15.4864C9.0392 15.4864 8.80925 15.7163 8.80925 16C8.80925 16.2837 9.0392 16.5136 9.32287 16.5136Z" fill="white"/>
<path d="M31.915 21.887L32 21.3869L30.8533 21.1771C31.5001 20.7103 31.9223 19.9508 31.9223 19.094V18.5803H30.3814C30.1701 18.5803 29.9648 18.6065 29.7682 18.6549C29.8335 18.3813 29.8678 18.0983 29.8678 17.8099C29.8678 16.8446 29.4919 15.9372 28.8094 15.2548L28.3269 14.7721L27.8444 15.2547C27.1618 15.9373 26.786 16.8447 26.786 17.8099C26.786 18.0983 26.8203 18.3813 26.8855 18.6549C26.6889 18.6066 26.4836 18.5803 26.2724 18.5803H24.7315V19.094C24.7315 19.5103 24.8346 19.9132 25.0207 20.2724L24.9556 20.6415C24.8832 21.0513 24.9148 21.466 25.0357 21.8521L24.9076 22.2042C24.7652 22.5954 24.7243 23.0093 24.7763 23.4105L24.4605 23.9575C24.1518 24.4921 24.0698 25.115 24.2296 25.7113C24.3894 26.3076 24.7719 26.8061 25.3065 27.1146L25.8716 27.4409C25.1821 28.0628 23.5339 29.1921 21.1361 29.3375V27.8134C21.1361 27.0478 20.3403 26.4393 18.8836 26.079C18.8811 26.0591 18.8786 26.0391 18.8753 26.0191L18.5786 24.239L19.7436 19.5787C24.2393 19.305 27.8131 15.5613 27.8131 10.998C27.8131 9.47515 27.4071 7.97527 26.6388 6.66052L25.7926 5.21221C26.3432 5.19408 26.7859 4.74165 26.7859 4.18671V3.15952C26.7859 2.59315 26.325 2.13227 25.7586 2.13227H18.5914L17.2566 0.649085C17.0161 0.382022 16.7143 0.199835 16.3838 0.122335C15.7899 -0.0171029 15.1681 0.17721 14.7611 0.629522L13.4086 2.13227H6.24113C5.67475 2.13227 5.21387 2.59315 5.21387 3.15952V4.18677C5.21387 4.74171 5.65656 5.19427 6.20725 5.21227L5.36106 6.66052C4.59281 7.97534 4.18669 9.47521 4.18669 10.9981C4.18669 15.5614 7.76056 19.3051 12.2563 19.5788L13.4213 24.239L13.1245 26.0192C13.1212 26.0391 13.1187 26.0591 13.1162 26.079C11.6595 26.4392 10.8636 27.0478 10.8636 27.8134V29.3376C8.46362 29.1921 6.81463 28.0609 6.12738 27.4415L6.69319 27.1148C7.22788 26.8061 7.61031 26.3076 7.77012 25.7113C7.92994 25.115 7.84794 24.4921 7.53925 23.9576L7.2235 23.4105C7.2755 23.0093 7.23456 22.5955 7.09219 22.2043L6.96406 21.8521C7.08494 21.466 7.1165 21.0513 7.04419 20.6415L6.97913 20.2724C7.16525 19.9132 7.26831 19.5103 7.26831 19.094V18.5803H5.7275C5.51619 18.5803 5.31094 18.6065 5.11438 18.6549C5.17963 18.3813 5.21387 18.0983 5.21387 17.8099C5.21387 16.8446 4.83806 15.9372 4.15556 15.2548L3.673 14.7721L3.1905 15.2547C2.50794 15.9373 2.13212 16.8447 2.13212 17.8099C2.13212 18.0983 2.16644 18.3813 2.23163 18.6549C2.03506 18.6066 1.82975 18.5803 1.6185 18.5803H0.0776875V19.094C0.0776875 19.9508 0.499875 20.7104 1.14669 21.1771L0 21.3869L0.085 21.887C0.202312 22.5771 0.576812 23.1741 1.13962 23.5681C1.22494 23.6278 1.31363 23.6802 1.404 23.7281L0.159625 24.181L0.335312 24.6636C0.569937 25.3083 1.04156 25.8229 1.66319 26.1128C1.78212 26.1683 1.90406 26.2136 2.02769 26.25L0.926875 26.8855L1.31206 27.5528C1.73969 28.2935 2.51819 28.708 3.31756 28.708C3.70938 28.708 4.10638 28.6083 4.46938 28.3988L5.206 27.9735C6.00669 28.8009 8.06731 30.2526 10.9893 30.373C11.5434 31.4336 13.8432 31.9223 15.9999 31.9223C18.1566 31.9223 20.4566 31.4336 21.0107 30.3728C23.9326 30.2525 25.9932 28.8008 26.7939 27.9734L27.5306 28.3986C27.8936 28.6083 28.2904 28.7078 28.6824 28.7078C29.4818 28.7078 30.2603 28.2933 30.6879 27.5526L31.0731 26.8854L29.9723 26.2498C30.0959 26.2134 30.2178 26.1681 30.3368 26.1126C30.9585 25.8227 31.4301 25.3081 31.6647 24.6635L31.8404 24.1808L30.5961 23.728C30.6865 23.6801 30.7752 23.6277 30.8605 23.568C31.4232 23.1741 31.7978 22.5771 31.915 21.887ZM26.0928 24.0101C25.8865 23.7361 25.7784 23.4041 25.7808 23.0686L26.1799 23.2139C26.8092 23.4429 27.1991 24.0418 27.1938 24.6761L26.89 24.5655C26.7482 24.422 26.5856 24.2946 26.4026 24.1889L26.0928 24.0101ZM25.9656 21.341L26.3839 21.4148C26.7892 21.4861 27.1425 21.7112 27.3786 22.0484C27.5127 22.2399 27.5999 22.4546 27.6371 22.6787L27.2174 22.6048C27.2051 22.6026 27.1922 22.5998 27.1796 22.5971C26.9859 22.4538 26.7691 22.3351 26.5313 22.2485L26.4365 22.214C26.1858 21.9801 26.0215 21.672 25.9656 21.341ZM28.1095 23.9171C28.0974 23.8773 28.0842 23.8377 28.0702 23.7986L28.2514 23.8317C28.2031 23.8588 28.1557 23.8871 28.1095 23.9171ZM28.3996 21.7569C28.3831 21.725 28.3662 21.6933 28.3482 21.6621H28.5063C28.4697 21.6928 28.4341 21.7243 28.3996 21.7569ZM30.807 19.6076C30.595 20.2055 30.0238 20.6348 29.3541 20.6348H28.9285C29.1405 20.0369 29.7117 19.6076 30.3814 19.6076H30.807ZM28.3269 16.2621C28.6602 16.7066 28.8405 17.2444 28.8405 17.8099C28.8405 18.3754 28.6602 18.9133 28.3269 19.3577C27.9936 18.9132 27.8132 18.3754 27.8132 17.8099C27.8132 17.2445 27.9936 16.7066 28.3269 16.2621ZM26.2724 19.6076C26.9421 19.6076 27.5133 20.037 27.7253 20.6348H27.2997C27.2883 20.6348 27.276 20.6343 27.2641 20.634C27.0453 20.5251 26.8098 20.4469 26.5623 20.4032L26.463 20.3857C26.1754 20.1988 25.9602 19.9238 25.8477 19.6076H26.2724V19.6076ZM25.2219 25.4454C25.1558 25.1983 25.1643 24.9432 25.2439 24.7061L25.8891 25.0786C26.0311 25.1606 26.1508 25.2663 26.2476 25.3872L26.2369 25.4103C26.2514 25.417 26.2653 25.4228 26.2796 25.4291C26.5235 25.761 26.5986 26.1977 26.4651 26.5975L25.8202 26.2251C25.5232 26.0536 25.3107 25.7767 25.2219 25.4454ZM17.6534 23.7044H16.6577L17.685 19.5954H18.6806L17.6534 23.7044ZM17.8621 26.1881C17.8874 26.3395 17.8466 26.4874 17.7474 26.6045C17.6482 26.7216 17.509 26.7861 17.3555 26.7861H14.6445C14.491 26.7861 14.3518 26.7216 14.2526 26.6045C14.1534 26.4874 14.1127 26.3395 14.1379 26.1881L14.3806 24.7316H17.6194L17.8621 26.1881ZM16 22.1003L15.3738 19.5955H16.6262L16 22.1003ZM25.7588 3.15952V4.18677H20.4404L19.5159 3.15952H25.7588ZM22.2044 9.2519C22.5136 9.78115 22.6771 10.3849 22.6771 10.998C22.6771 12.9066 21.1244 14.4592 19.2159 14.4592H12.7841C10.8756 14.4592 9.32294 12.9065 9.32294 10.998C9.32294 10.385 9.48637 9.78115 9.79575 9.25183L10.5241 8.0054C10.9756 9.36584 12.2593 10.3502 13.7693 10.3502C14.0031 10.3502 14.2334 10.3268 14.4592 10.2801V11.3775C14.4592 11.9438 14.9201 12.4047 15.4864 12.4047H16.5137C17.0801 12.4047 17.5409 11.9438 17.5409 11.3775V10.2801C17.7667 10.3268 17.9971 10.3502 18.2308 10.3502C19.7409 10.3502 21.0246 9.36577 21.4761 8.00533L22.2044 9.2519ZM15.5246 1.31677C15.6808 1.14315 15.9202 1.06858 16.1491 1.12252C16.2746 1.1519 16.3936 1.2259 16.4931 1.3364L20.0086 5.24258C20.4046 5.68258 20.6226 6.25083 20.6226 6.84271V6.93127C20.6226 8.25015 19.5497 9.32315 18.2307 9.32315C17.8876 9.32315 17.5543 9.25058 17.2401 9.10758C17.0812 9.03515 16.8963 9.04858 16.7494 9.14315C16.6025 9.23771 16.5137 9.4004 16.5137 9.57508V11.3776H15.4864V9.57496C15.4864 9.40027 15.3976 9.23759 15.2507 9.14302C15.1665 9.08883 15.0699 9.06133 14.9727 9.06133C14.9004 9.06133 14.8279 9.07658 14.76 9.10752C14.4458 9.25065 14.1125 9.32308 13.7694 9.32308C12.4505 9.32308 11.3775 8.25008 11.3775 6.93121V6.84265C11.3775 6.25077 11.5956 5.68252 11.9915 5.24252L15.5246 1.31677ZM6.24113 3.15952H12.484L11.5595 4.18677H6.24113V3.15952ZM5.21387 10.998C5.21387 9.65715 5.57144 8.33652 6.24794 7.17877L7.396 5.21396H10.7631C10.6054 5.50477 10.4913 5.81702 10.4235 6.14121L8.90875 8.73352C8.50769 9.4199 8.29569 10.203 8.29569 10.998C8.29569 13.473 10.3091 15.4865 12.7841 15.4865H19.2159C21.6908 15.4865 23.7043 13.473 23.7043 10.998C23.7043 10.203 23.4923 9.41996 23.0913 8.73358L21.5764 6.14108C21.5086 5.8169 21.3946 5.50477 21.2369 5.21396H24.604L25.7521 7.17883C26.4285 8.3364 26.7861 9.65715 26.7861 10.998C26.7861 15.1722 23.3901 18.5681 19.2159 18.5681H12.7841C8.60987 18.5682 5.21387 15.1722 5.21387 10.998ZM13.3193 19.5955H14.3149L15.3421 23.7045H14.3465L13.3193 19.5955ZM13.3348 27.0836C13.3747 27.1479 13.4191 27.2099 13.4688 27.2685C13.7621 27.6148 14.1907 27.8133 14.6446 27.8133H17.3556C17.8094 27.8133 18.2379 27.6147 18.5313 27.2685C18.5809 27.2098 18.6254 27.1479 18.6653 27.0836C19.7525 27.359 20.1091 27.7236 20.1091 27.8134C20.1091 27.8575 19.9348 28.1395 19.1064 28.4157C18.2842 28.6897 17.181 28.8406 16 28.8406C14.819 28.8406 13.7159 28.6897 12.8938 28.4157C12.0653 28.1396 11.8911 27.8575 11.8911 27.8134C11.891 27.7235 12.2476 27.359 13.3348 27.0836ZM5.61606 21.4149L6.03444 21.3411C5.97856 21.672 5.81437 21.9802 5.56362 22.2141L5.46881 22.2487C5.23106 22.3353 5.01425 22.4539 4.82056 22.5973C4.80794 22.6 4.79506 22.6028 4.78294 22.6049L4.36306 22.6789C4.40025 22.4548 4.48744 22.2401 4.62156 22.0486C4.8575 21.7113 5.21069 21.4863 5.61606 21.4149ZM5.90719 24.0102L5.59737 24.1891C5.41437 24.2947 5.25181 24.4221 5.11 24.5656L4.80613 24.6762C4.80081 24.0418 5.19075 23.443 5.82 23.214L6.21912 23.0687C6.22162 23.4041 6.11344 23.7362 5.90719 24.0102ZM3.65175 21.6621C3.63388 21.6933 3.61694 21.7251 3.60044 21.7569C3.56587 21.7243 3.53019 21.6928 3.49375 21.6621H3.65175ZM3.92981 23.7985C3.91575 23.8376 3.90263 23.8771 3.8905 23.917C3.84431 23.887 3.79688 23.8587 3.74863 23.8316L3.92981 23.7985ZM6.77806 25.4454C6.68925 25.7767 6.47681 26.0536 6.17975 26.2251L5.53487 26.5975C5.40125 26.1977 5.47644 25.761 5.72038 25.4291C5.73462 25.4228 5.7485 25.4171 5.76306 25.4103L5.75231 25.3872C5.84913 25.2663 5.96887 25.1606 6.11088 25.0786L6.756 24.7061C6.83575 24.9432 6.84425 25.1984 6.77806 25.4454ZM6.15238 19.6076C6.03988 19.9238 5.82463 20.1988 5.53706 20.3856L5.43775 20.4031C5.19031 20.4468 4.95475 20.5251 4.73594 20.634C4.72406 20.6343 4.71175 20.6348 4.70038 20.6348H4.27475C4.48675 20.0368 5.05794 19.6075 5.72762 19.6075H6.15238V19.6076ZM3.67306 16.2621C4.00638 16.7066 4.18669 17.2444 4.18669 17.8099C4.18669 18.3754 4.00644 18.9133 3.67306 19.3577C3.33975 18.9132 3.15944 18.3754 3.15944 17.8099C3.15944 17.2445 3.33975 16.7066 3.67306 16.2621ZM1.61856 19.6076C2.28819 19.6076 2.85944 20.037 3.07144 20.6348H2.64581C1.97619 20.6348 1.40494 20.2055 1.19294 19.6076H1.61856ZM1.65881 22.1277C2.03087 22.0596 2.40881 22.1433 2.72306 22.3633C2.91937 22.5008 3.0775 22.6806 3.18925 22.8896L2.79294 22.9621C2.42088 23.0302 2.04294 22.9465 1.72869 22.7265C1.53237 22.5891 1.37425 22.4092 1.2625 22.2003L1.65881 22.1277ZM1.55825 24.7651L1.95887 24.6193C2.3455 24.4784 2.76406 24.4968 3.13706 24.6707C3.349 24.7695 3.53194 24.9119 3.67613 25.0874L3.27544 25.2332C2.88869 25.374 2.47019 25.3556 2.09725 25.1818C1.88538 25.083 1.7025 24.9406 1.55825 24.7651ZM3.95575 27.5092C3.41875 27.8193 2.74844 27.6961 2.35244 27.2486L2.99738 26.8763C3.53437 26.5662 4.20463 26.6895 4.60063 27.1368L3.95575 27.5092ZM19.1063 30.4701C18.2842 30.7441 17.181 30.8951 16 30.8951C14.819 30.8951 13.7159 30.7441 12.8938 30.4701C12.0653 30.194 11.8911 29.912 11.8911 29.8678V29.112C12.8923 29.6255 14.4816 29.8678 16.0001 29.8678C17.5186 29.8678 19.1078 29.6255 20.1091 29.112V29.8678C20.1089 29.912 19.9347 30.194 19.1063 30.4701ZM28.0443 27.5092L27.3994 27.1368C27.7954 26.6896 28.4656 26.5661 29.0026 26.8763L29.6476 27.2486C29.2516 27.6961 28.5814 27.8193 28.0443 27.5092ZM29.9027 25.1818C29.5297 25.3557 29.1112 25.374 28.7245 25.2333L28.3238 25.0875C28.4681 24.912 28.6509 24.7696 28.8629 24.6708C29.2359 24.4968 29.6543 24.4786 30.0411 24.6193L30.4417 24.7651C30.2975 24.9406 30.1146 25.083 29.9027 25.1818ZM30.2713 22.7266C29.9571 22.9465 29.5793 23.0302 29.2071 22.9622L28.8107 22.8896C28.9224 22.6806 29.0806 22.5008 29.2769 22.3634C29.5911 22.1434 29.9691 22.0598 30.3412 22.1278L30.7375 22.2003C30.6258 22.4093 30.4677 22.5891 30.2713 22.7266Z" fill="white"/>
<path d="M30.895 8.29572H29.8678V9.32297H30.895V8.29572Z" fill="white"/>
<path d="M30.895 10.3502H29.8678V11.3775H30.895V10.3502Z" fill="white"/>
<path d="M31.9223 9.32297H30.895V10.3502H31.9223V9.32297Z" fill="white"/>
<path d="M29.8677 9.32297H28.8405V10.3502H29.8677V9.32297Z" fill="white"/>
<path d="M29.8677 0.0776978H28.8405V1.10495H29.8677V0.0776978Z" fill="white"/>
<path d="M29.8677 2.1322H28.8405V3.15945H29.8677V2.1322Z" fill="white"/>
<path d="M30.895 1.10495H29.8678V2.1322H30.895V1.10495Z" fill="white"/>
<path d="M28.8405 1.10495H27.8132V2.1322H28.8405V1.10495Z" fill="white"/>
<path d="M2.13218 8.29572H1.10493V9.32297H2.13218V8.29572Z" fill="white"/>
<path d="M2.13218 10.3502H1.10493V11.3775H2.13218V10.3502Z" fill="white"/>
<path d="M1.10493 9.32297H0.0776825V10.3502H1.10493V9.32297Z" fill="white"/>
<path d="M3.15943 9.32297H2.13218V10.3502H3.15943V9.32297Z" fill="white"/>
<path d="M3.15943 0.0776978H2.13218V1.10495H3.15943V0.0776978Z" fill="white"/>
<path d="M3.15943 2.1322H2.13218V3.15945H3.15943V2.1322Z" fill="white"/>
<path d="M2.13218 1.10495H1.10493V2.1322H2.13218V1.10495Z" fill="white"/>
<path d="M4.18668 1.10495H3.15943V2.1322H4.18668V1.10495Z" fill="white"/>
</g>
<defs>
<clipPath id="clip0_130_29575">
<rect width="32" height="32" fill="white"/>
</clipPath>
</defs>
</svg>
