<svg width="32" height="32" viewBox="0 0 32 32" fill="none" xmlns="http://www.w3.org/2000/svg">
<g clip-path="url(#clip0_130_29566)">
<path d="M16 13.4194C16.8335 13.4194 17.5828 12.9563 17.9555 12.2109L18.01 12.1019L17.0867 11.6402L17.0322 11.7493C16.8355 12.1428 16.4399 12.3873 16 12.3873C15.5601 12.3873 15.1645 12.1428 14.9677 11.7492L14.9132 11.6403L13.99 12.102L14.0444 12.2109C14.4172 12.9563 15.1665 13.4194 16 13.4194Z" fill="white"/>
<path d="M13.4194 8.77419C13.7044 8.77419 13.9355 8.54312 13.9355 8.25807C13.9355 7.97302 13.7044 7.74194 13.4194 7.74194C13.1343 7.74194 12.9032 7.97302 12.9032 8.25807C12.9032 8.54312 13.1343 8.77419 13.4194 8.77419Z" fill="white"/>
<path d="M18.5806 8.77419C18.8657 8.77419 19.0967 8.54312 19.0967 8.25807C19.0967 7.97302 18.8657 7.74194 18.5806 7.74194C18.2956 7.74194 18.0645 7.97302 18.0645 8.25807C18.0645 8.54312 18.2956 8.77419 18.5806 8.77419Z" fill="white"/>
<path d="M16.7469 10.7842C16.8694 10.7229 16.9625 10.6156 17.0058 10.4857C17.0491 10.3559 17.0389 10.2141 16.9777 10.0917L16.9233 9.98281C16.6569 9.45012 16.5161 8.85362 16.5161 8.25812H15.4838C15.4838 8.88156 15.6055 9.50574 15.8381 10.0846L15.253 10.3771L15.7146 11.3004L16.7469 10.7842Z" fill="white"/>
<path d="M29.6456 27.1433C28.4484 26.7892 26.771 26.4846 24.7742 26.2574V20.8331C24.7742 18.6574 23.2936 16.7962 21.1736 16.3069L18.0645 15.5894V14.7707L18.7362 14.4348C20.2321 13.6869 21.1613 12.1832 21.1613 10.5109V10.3226C22.2997 10.3226 23.2258 9.3965 23.2258 8.25813C23.2258 7.83894 23.0999 7.44881 22.8844 7.12288C23.1106 6.52731 23.2258 5.90244 23.2258 5.26062C23.2258 2.35987 20.8659 0 17.9653 0H13.3591C12.3144 0 11.3833 0.625188 10.9823 1.57525C9.73519 1.75644 8.77425 2.83263 8.77425 4.12906V5.26062C8.77425 5.90244 8.8895 6.52725 9.11563 7.12288C8.90013 7.44888 8.77425 7.839 8.77425 8.25813C8.77425 9.3965 9.70037 10.3226 10.8387 10.3226V10.5109C10.8387 12.1832 11.768 13.6869 13.2639 14.4348L13.9356 14.7706V15.5894L10.8265 16.3069C8.99406 16.7297 7.60812 18.2119 7.29375 20.0446L5.50262 20.9262L7.58606 25.1591C7.37056 25.4737 7.24031 25.8509 7.22756 26.2572C5.23 26.4845 3.55194 26.7891 2.35444 27.1433C1.34369 27.4422 0 27.95 0 28.9032C0 29.5498 0.514812 30.4952 4.96637 31.2371C7.91806 31.7291 11.8366 32 16 32C20.1634 32 24.0819 31.7291 27.0336 31.2371C31.4852 30.4952 32 29.5498 32 28.9032C32 27.95 30.6563 27.4422 29.6456 27.1433ZM21.6774 24.3468C21.0767 24.5599 20.6452 25.1336 20.6452 25.8064V27.8709C20.6452 28.0519 20.6767 28.2255 20.7339 28.3871H18.5806V23.2257H21.6774L21.6774 24.3468ZM21.6774 27.8709V25.8064C21.6774 25.5219 21.909 25.2903 22.1936 25.2903H22.7097C23.2789 25.2903 23.7419 25.7534 23.7419 26.3226V26.8387V27.3548C23.7419 27.924 23.2788 28.3871 22.7097 28.3871H22.1936C21.9089 28.3871 21.6774 28.1556 21.6774 27.8709ZM18.6791 16.7906L18.2322 18.8019L16.7563 17.9164L17.7597 16.5785L18.6791 16.7906ZM21.1613 9.29031V7.22581C21.7305 7.22581 22.1936 7.68894 22.1936 8.25806C22.1936 8.82725 21.7304 9.29031 21.1613 9.29031ZM9.80644 8.25806C9.80644 7.68887 10.2696 7.22581 10.8387 7.22581V9.29031C10.2696 9.29031 9.80644 8.82725 9.80644 8.25806ZM10.8387 5.16131V6.19356C10.5247 6.19356 10.227 6.26431 9.96031 6.39025C9.8585 6.024 9.80644 5.64612 9.80644 5.26056V4.12906C9.80644 3.27525 10.5011 2.58069 11.3548 2.58069H11.7268L11.8901 2.09106C12.1012 1.45775 12.6915 1.03231 13.3589 1.03231H17.9651C20.2967 1.03231 22.1935 2.92912 22.1935 5.26062C22.1935 5.64619 22.1414 6.02406 22.0396 6.39031C21.7729 6.26438 21.4752 6.19362 21.1612 6.19362H20.6451H20.4118C20.0344 6.19362 19.6797 6.04675 19.4129 5.77987L18.5806 4.94756L17.6227 5.90544C17.4369 6.09125 17.1899 6.19362 16.927 6.19362C16.5519 6.19362 16.2147 5.98525 16.0469 5.64975L15.8028 5.16131H15.4839C15.0104 5.16131 14.5711 4.92613 14.3084 4.53219L13.4194 3.19856L12.5302 4.53225C12.2676 4.92613 11.8282 5.16131 11.3548 5.16131H10.8387ZM13.7255 13.5115C12.5816 12.9395 11.871 11.7898 11.871 10.5109V6.13875C12.4861 6.0065 13.0321 5.64044 13.3891 5.10475L13.4194 5.05944L13.4496 5.10481C13.8425 5.69431 14.4643 6.07838 15.1551 6.1715C15.5084 6.82356 16.1812 7.22575 16.9271 7.22575C17.4656 7.22575 17.9719 7.01606 18.3528 6.63525L18.5807 6.40725L18.6831 6.50962C19.0775 6.90406 19.583 7.14719 20.1291 7.20969V10.5108C20.1291 11.7897 19.4185 12.9395 18.2746 13.5114L17.6029 13.8472C17.2509 14.0232 17.0323 14.377 17.0323 14.7706V15.8279L16 17.2043L14.9677 15.8279V14.7706C14.9677 14.377 14.7491 14.0232 14.3971 13.8472L13.7255 13.5115ZM14.2403 16.5784L15.2437 17.9163L13.7679 18.8019L13.3209 16.7906L14.2403 16.5784ZM11.0586 17.3127L12.315 17.0228L13.0708 20.4239L15.4839 18.9761V24.7742H16.5161V18.9761L18.9292 20.4239L19.685 17.0228L20.9414 17.3127C22.5903 17.6932 23.7419 19.1408 23.7419 20.8331V24.5357C23.438 24.3595 23.0856 24.258 22.7097 24.258V22.1935H17.5484V25.8191C16.523 25.8024 15.4769 25.8024 14.4516 25.8191V20.6451H11.1169L10.1334 18.6469L8.54138 19.4304C8.98356 18.3811 9.90775 17.5782 11.0586 17.3127ZM10.3226 24.3468V21.6774H13.4193V26.8387H11.3548V25.8064C11.3548 25.1336 10.9233 24.5599 10.3226 24.3468ZM8.25806 26.3226C8.25806 25.7534 8.72119 25.2903 9.29031 25.2903H9.80644C10.091 25.2903 10.3226 25.5219 10.3226 25.8064V27.8709C10.3226 28.1555 10.091 28.3871 9.80644 28.3871H9.29031C8.72113 28.3871 8.25806 27.9239 8.25806 27.3548V26.3226ZM9.66306 20.0289L9.96638 20.6451H9.29037V24.258C8.96931 24.258 8.66519 24.3317 8.394 24.4629L6.88462 21.3964L9.66306 20.0289ZM26.5581 30.2685C23.6978 30.7194 19.9482 30.9678 16 30.9678C12.0518 30.9678 8.30219 30.7194 5.44194 30.2685C2.1285 29.7461 1.15519 29.1234 1.03788 28.9031C1.18156 28.6313 2.56775 27.8359 7.22581 27.2962V27.3548C7.22581 28.4932 8.15194 29.4193 9.29031 29.4193H9.80644C10.6602 29.4193 11.3548 28.7247 11.3548 27.8709H14.4516V26.8515C15.4767 26.8346 16.5233 26.8346 17.5483 26.8515V29.4193H22.1935H22.7096C23.848 29.4193 24.7741 28.4932 24.7741 27.3548V27.2962C29.4322 27.8359 30.8184 28.6314 30.9621 28.9031C30.8448 29.1234 29.8715 29.7461 26.5581 30.2685Z" fill="white"/>
</g>
<defs>
<clipPath id="clip0_130_29566">
<rect width="32" height="32" fill="white"/>
</clipPath>
</defs>
</svg>
