<svg width="32" height="32" viewBox="0 0 32 32" fill="none" xmlns="http://www.w3.org/2000/svg">
<path d="M22.7097 13.4193H21.6774V14.4516H22.7097V13.4193Z" fill="white"/>
<path d="M22.7097 5.16129H21.6774V6.19354H22.7097V5.16129Z" fill="white"/>
<path d="M22.7097 9.29028H21.6774V10.3225H22.7097V9.29028Z" fill="white"/>
<path d="M22.7097 7.22577H21.6774V8.25802H22.7097V7.22577Z" fill="white"/>
<path d="M22.7097 15.4838H21.6774V16.5161H22.7097V15.4838Z" fill="white"/>
<path d="M22.7097 11.3548H21.6774V12.387H22.7097V11.3548Z" fill="white"/>
<path d="M31.4839 4.12905H32V1.03224H23.0121L22.1936 1.85074L21.375 1.03224H0V20.6451H5.96381C6.05719 20.8587 6.17169 21.0607 6.30456 21.2491C4.22775 21.8129 3.09675 22.6842 3.09675 23.7419V27.8709C3.09675 28.5283 3.55137 29.4634 5.71719 30.1854C7.23069 30.6898 9.23281 30.9677 11.3548 30.9677C13.4768 30.9677 15.4789 30.6898 16.9924 30.1854C19.1582 29.4634 19.6129 28.5282 19.6129 27.8709V23.7419C19.6129 22.6842 18.4819 21.8129 16.4051 21.2491C16.5379 21.0607 16.6525 20.8587 16.7458 20.6451H21.375L22.1935 19.8266L23.012 20.6451H32V17.5484H31.4839C31.1993 17.5484 30.9678 17.3168 30.9678 17.0322C30.9678 16.7477 31.1993 16.5161 31.4839 16.5161H32V13.4194H31.4839C31.1993 13.4194 30.9678 13.1878 30.9678 12.9032C30.9678 12.6187 31.1993 12.3871 31.4839 12.3871H32V9.29037H31.4839C31.1993 9.29037 30.9678 9.0588 30.9678 8.77424C30.9678 8.48968 31.1993 8.25812 31.4839 8.25812H32V5.1613H31.4839C31.1993 5.1613 30.9678 4.92974 30.9678 4.64518C30.9678 4.36062 31.1993 4.12905 31.4839 4.12905ZM16.1502 16.8864L14.0634 14.5677L18.9111 10.8387L16.9336 9.31755C16.9973 9.14837 17.0322 8.96537 17.0322 8.77418C17.0322 7.92037 16.3376 7.2258 15.4839 7.2258C15.1499 7.2258 14.8406 7.33237 14.5875 7.51293L11.3548 5.02624L8.12219 7.51287C7.869 7.33237 7.55975 7.22574 7.22581 7.22574C6.37206 7.22574 5.67744 7.9203 5.67744 8.77412C5.67744 8.9653 5.7125 9.1483 5.77606 9.31749L3.79862 10.8387L8.64631 14.5676L6.55944 16.8864C6.37662 17.0896 6.22056 17.312 6.09237 17.5483H3.09675V4.12905H19.6129V17.5484H16.6173C16.4892 17.3121 16.3332 17.0897 16.1502 16.8864ZM10.6019 21.4964C10.5173 21.442 10.4201 21.4144 10.3225 21.4144C10.2499 21.4144 10.1769 21.4297 10.1088 21.4607C9.79294 21.6045 9.45806 21.6774 9.11319 21.6774C7.78788 21.6774 6.70962 20.5991 6.70962 19.2738V19.1849C6.70962 18.5901 6.92875 18.0191 7.32656 17.5769L10.8769 13.6321C11.034 13.4576 11.2743 13.3829 11.5044 13.4367C11.6307 13.4664 11.7503 13.5407 11.8502 13.6517L15.3829 17.577C15.7808 18.0192 15.9998 18.5902 15.9998 19.1849V19.2739C15.9999 20.5992 14.9216 21.6774 13.5963 21.6774C13.2515 21.6774 12.9166 21.6046 12.6007 21.4608C12.441 21.3881 12.2552 21.4016 12.1076 21.4966C11.9599 21.5916 11.8708 21.7551 11.8708 21.9306V23.742H10.8385V21.9306C10.8387 21.7549 10.7495 21.5915 10.6019 21.4964ZM15.4839 9.2903C15.1993 9.2903 14.9677 9.05874 14.9677 8.77418C14.9677 8.48962 15.1993 8.25805 15.4839 8.25805C15.7684 8.25805 16 8.48962 16 8.77418C16 9.05874 15.7684 9.2903 15.4839 9.2903ZM13.4194 8.25805C13.7039 8.25805 13.9355 8.48962 13.9355 8.77418C13.9355 9.05874 13.7039 9.2903 13.4194 9.2903C13.1348 9.2903 12.9032 9.05874 12.9032 8.77418C12.9032 8.48962 13.1348 8.25805 13.4194 8.25805ZM12.3871 7.62137C12.113 7.37562 11.7511 7.2258 11.3549 7.2258C10.9586 7.2258 10.5968 7.37562 10.3226 7.62137C10.2193 7.5288 10.1036 7.44999 9.97825 7.38755L11.3549 6.32862L12.7315 7.38755C12.6061 7.44999 12.4904 7.52874 12.3871 7.62137ZM11.8709 8.77418C11.8709 9.05874 11.6394 9.2903 11.3548 9.2903C11.0703 9.2903 10.8387 9.05874 10.8387 8.77418C10.8387 8.48962 11.0703 8.25805 11.3548 8.25805C11.6394 8.25805 11.8709 8.48962 11.8709 8.77418ZM9.29031 8.25805C9.57487 8.25805 9.80644 8.48962 9.80644 8.77418C9.80644 9.05874 9.57487 9.2903 9.29031 9.2903C9.00575 9.2903 8.77419 9.05874 8.77419 8.77418C8.77419 8.48962 9.00575 8.25805 9.29031 8.25805ZM6.70969 8.77418C6.70969 8.48962 6.94125 8.25805 7.22581 8.25805C7.51038 8.25805 7.74194 8.48962 7.74194 8.77418C7.74194 9.05874 7.51038 9.2903 7.22581 9.2903C6.94125 9.2903 6.70969 9.05874 6.70969 8.77418ZM6.44125 10.1082C6.6715 10.2442 6.93962 10.3226 7.22581 10.3226C7.62206 10.3226 7.98394 10.1727 8.25806 9.92699C8.53219 10.1727 8.89406 10.3226 9.29031 10.3226C9.68656 10.3226 10.0484 10.1727 10.3226 9.92699C10.5967 10.1727 10.9586 10.3226 11.3548 10.3226C11.7511 10.3226 12.1129 10.1727 12.3871 9.92699C12.6612 10.1727 13.0231 10.3226 13.4193 10.3226C13.8156 10.3226 14.1774 10.1727 14.4516 9.92699C14.7257 10.1727 15.0876 10.3226 15.4838 10.3226C15.77 10.3226 16.0381 10.2442 16.2684 10.1082L17.2179 10.8387L13.3707 13.7981L12.6175 12.9612C12.376 12.6929 12.0728 12.5099 11.7402 12.4318C11.1436 12.2919 10.5186 12.4871 10.1097 12.9416L9.33887 13.7981L5.49156 10.8387L6.44125 10.1082ZM4.12906 25.3179C4.51225 25.5751 5.02775 25.8266 5.71725 26.0564C5.87075 26.1076 6.03044 26.1557 6.19356 26.2021V27.1882C4.87244 26.7721 4.12906 26.2389 4.12906 25.8064V25.3179ZM13.4194 27.7765V26.7476C14.1453 26.6826 14.8394 26.5836 15.4839 26.4524V27.4609C14.8726 27.5954 14.1814 27.7046 13.4194 27.7765ZM15.4839 28.5169V29.5254C14.8726 29.6599 14.1814 29.7692 13.4194 29.8411V28.8122C14.1453 28.7471 14.8394 28.6481 15.4839 28.5169ZM12.3871 27.848C12.0537 27.8629 11.7095 27.8709 11.3549 27.8709C11.0002 27.8709 10.6561 27.8629 10.3226 27.848V26.8158C10.6626 26.8305 11.0069 26.8387 11.3549 26.8387C11.7029 26.8387 12.0472 26.8306 12.3871 26.8158V27.848ZM9.29031 27.7765C8.52831 27.7046 7.837 27.5953 7.22581 27.4609V26.4524C7.87031 26.5836 8.56437 26.6826 9.29031 26.7476V27.7765ZM9.29031 28.8121V29.841C8.52831 29.7691 7.837 29.6598 7.22581 29.5254V28.5169C7.87031 28.6481 8.56437 28.7471 9.29031 28.8121ZM4.12906 27.8709V27.3824C4.51225 27.6396 5.02775 27.8911 5.71725 28.1209C5.87075 28.1721 6.03044 28.2202 6.19356 28.2666V29.2527C4.87244 28.8366 4.12906 28.3036 4.12906 27.8709ZM10.3226 29.9125V28.8803C10.6625 28.895 11.0068 28.9032 11.3548 28.9032C11.7028 28.9032 12.0471 28.8951 12.3871 28.8803V29.9125C12.0536 29.9274 11.7094 29.9354 11.3548 29.9354C11.0002 29.9354 10.656 29.9275 10.3226 29.9125ZM16.5161 29.2527V28.2667C16.6792 28.2202 16.8389 28.1721 16.9924 28.1209C17.682 27.8911 18.1975 27.6396 18.5806 27.3824V27.8709C18.5806 28.3036 17.8372 28.8366 16.5161 29.2527ZM16.5161 27.1882V26.2022C16.6792 26.1557 16.8389 26.1076 16.9924 26.0564C17.682 25.8266 18.1975 25.5751 18.5806 25.3179V25.8064C18.5806 26.239 17.8372 26.7721 16.5161 27.1882ZM18.5806 23.7419C18.5806 24.5837 15.7657 25.8064 11.3548 25.8064C6.94388 25.8064 4.12906 24.5837 4.12906 23.7419C4.12906 23.2547 5.17044 22.5467 7.16344 22.1006C7.71781 22.4842 8.38956 22.7097 9.11325 22.7097C9.34812 22.7097 9.57963 22.6861 9.8065 22.6392V23.7419C9.8065 24.3111 10.2696 24.7742 10.8387 24.7742H11.871C12.4402 24.7742 12.9032 24.3111 12.9032 23.7419V22.6392C13.1301 22.6861 13.3616 22.7097 13.5965 22.7097C14.3202 22.7097 14.9919 22.4842 15.5463 22.1006C17.5393 22.5467 18.5806 23.2547 18.5806 23.7419ZM30.9678 3.18524C30.367 3.3983 29.9355 3.9723 29.9355 4.64518C29.9355 5.31805 30.367 5.89205 30.9678 6.10512V7.3143C30.3669 7.52737 29.9355 8.10137 29.9355 8.77424C29.9355 9.44712 30.367 10.0211 30.9678 10.2342V11.4433C30.3669 11.6564 29.9355 12.2304 29.9355 12.9032C29.9355 13.5761 30.367 14.1501 30.9678 14.3632V15.5724C30.3669 15.7854 29.9355 16.3595 29.9355 17.0323C29.9355 17.7051 30.367 18.2792 30.9678 18.4922V19.613H23.4396L22.7097 18.8831V17.5485H21.6774V18.8831L20.9476 19.613H17.0154C17.0264 19.5014 17.0323 19.3884 17.0323 19.2739V19.185C17.0323 18.9809 17.0138 18.7789 16.9785 18.5807H20.6451V3.09674H2.0645V18.5806H5.73125C5.69594 18.7787 5.67744 18.9808 5.67744 19.1849V19.2738C5.67744 19.3882 5.68331 19.5013 5.69431 19.6129H1.03225V2.06449H20.9476L21.6774 2.79443V4.12899H22.7097V2.79443L23.4396 2.06449H30.9678V3.18524Z" fill="white"/>
<path d="M28.9032 3.09671H23.7419V4.12896H28.9032V3.09671Z" fill="white"/>
<path d="M28.9032 5.16129H27.8709V6.19354H28.9032V5.16129Z" fill="white"/>
<path d="M26.8387 5.16129H23.7419V6.19354H26.8387V5.16129Z" fill="white"/>
<path d="M28.9032 7.22577H23.7419V8.25802H28.9032V7.22577Z" fill="white"/>
<path d="M28.9032 9.29028H27.8709V10.3225H28.9032V9.29028Z" fill="white"/>
<path d="M26.8387 9.29028H23.7419V10.3225H26.8387V9.29028Z" fill="white"/>
<path d="M28.9032 11.3548H23.7419V12.387H28.9032V11.3548Z" fill="white"/>
<path d="M28.9032 13.4193H27.8709V14.4516H28.9032V13.4193Z" fill="white"/>
<path d="M26.8387 13.4193H23.7419V14.4516H26.8387V13.4193Z" fill="white"/>
<path d="M28.9032 15.4838H23.7419V16.5161H28.9032V15.4838Z" fill="white"/>
<path d="M28.9032 17.5483H23.7419V18.5806H28.9032V17.5483Z" fill="white"/>
</svg>
