<svg width="32" height="32" viewBox="0 0 32 32" fill="none" xmlns="http://www.w3.org/2000/svg">
<g clip-path="url(#clip0_130_29606)">
<path d="M24.2575 6.70967C25.1113 6.70967 25.8059 6.01504 25.8059 5.16129C25.8059 4.30754 25.1113 3.61285 24.2575 3.61285C23.4038 3.61285 22.7091 4.30748 22.7091 5.16123C22.7091 6.01498 23.4038 6.70967 24.2575 6.70967ZM24.2575 4.64517C24.5421 4.64517 24.7736 4.87673 24.7736 5.16129C24.7736 5.44585 24.5421 5.67742 24.2575 5.67742C23.9729 5.67742 23.7414 5.44585 23.7414 5.16129C23.7414 4.87673 23.9729 4.64517 24.2575 4.64517Z" fill="white"/>
<path d="M30.4516 27.8709H29.898C29.6467 26.1224 28.1395 24.7742 26.3226 24.7742C24.5056 24.7742 22.9984 26.1224 22.7471 27.8709H18.0645V26.6799C24.5695 25.6769 29.4194 20.0561 29.4194 13.4194C29.4194 11.017 28.779 8.66975 27.5654 6.61181C27.761 6.1675 27.8704 5.67712 27.8704 5.16131C27.8704 3.16913 26.2497 1.54844 24.2575 1.54844C23.7416 1.54844 23.2511 1.65787 22.8067 1.85356C20.749 0.640188 18.4021 0 16 0C8.60056 0 2.58063 6.01994 2.58063 13.4194C2.58063 20.0561 7.4305 25.6769 13.9354 26.6799V27.871H1.54838C0.694625 27.8709 0 28.5656 0 29.4194V32H32V29.4194C32 28.5656 31.3054 27.8709 30.4516 27.8709ZM26.3226 25.8064C27.5688 25.8064 28.6115 26.6945 28.8512 27.8709H23.7938C24.0336 26.6945 25.0763 25.8064 26.3226 25.8064ZM13.9355 23.5347C9.18775 22.5685 5.67744 18.3223 5.67744 13.4194C5.67744 7.72744 10.3081 3.09681 16 3.09681C17.6604 3.09681 19.2964 3.49787 20.7589 4.25819C20.6843 4.54694 20.6446 4.84963 20.6446 5.16138C20.6446 5.58681 20.719 5.995 20.8546 6.37425L17.6116 9.61738C17.4301 9.54063 17.2431 9.47725 17.0524 9.42712C17.3736 8.9335 17.5483 8.35331 17.5483 7.742C17.5483 6.03438 16.1591 4.64525 14.4516 4.64525C12.744 4.64525 11.3548 6.03444 11.3548 7.742C9.64725 7.742 8.25806 9.13119 8.25806 10.8387C8.25806 10.9734 8.26731 11.1074 8.2845 11.2401C7.34525 11.7726 6.70969 12.7809 6.70969 13.9356C6.70969 15.4847 7.853 16.7716 9.34006 16.9972C9.30762 17.1778 9.29031 17.3617 9.29031 17.5485C9.29031 19.2561 10.6795 20.6453 12.3871 20.6453C12.9428 20.6453 13.4728 20.5009 13.9354 20.2334V23.5347H13.9355ZM6.88287 21.8064C4.95456 19.7079 3.74831 16.9487 3.62413 13.9355H4.65688C4.77325 16.4993 5.754 18.9514 7.44812 20.8894C7.50281 20.952 7.55825 21.0139 7.61425 21.0752L6.88287 21.8064ZM15.4839 2.07675C12.7416 2.20006 10.2494 3.30031 8.34813 5.0375L7.61812 4.3075C9.70731 2.38412 12.4571 1.16856 15.4839 1.04381V2.07675ZM7.61812 5.7675C5.88094 7.66875 4.78069 10.1609 4.65744 12.9032H3.6245C3.74919 9.8765 4.96481 7.12675 6.88819 5.0375L7.61812 5.7675ZM25.1608 8.65981C25.9214 10.1224 26.3226 11.7586 26.3226 13.4194C26.3226 16.3049 25.1065 18.963 23.1381 20.8591C23.1949 20.6248 23.2258 20.3806 23.2258 20.1291C23.2258 19.6713 23.1278 19.2308 22.9398 18.8268C24.0197 18.3426 24.7742 17.2582 24.7742 16.0001C24.7742 15.4853 24.6498 14.9901 24.4118 14.5449C24.9549 13.9868 25.2903 13.2256 25.2903 12.3871C25.2903 10.7204 23.9666 9.35763 22.3153 9.29344L23.0446 8.56413C23.4239 8.69975 23.8321 8.77419 24.2574 8.77419C24.5693 8.77419 24.872 8.73444 25.1608 8.65981ZM27.3431 13.9355H28.3759C28.2517 16.9489 27.0454 19.7079 25.1171 21.8064L24.3858 21.0751C24.4418 21.0138 24.4972 20.9519 24.5519 20.8893C26.246 18.9514 27.2267 16.4993 27.3431 13.9355ZM22.1936 14.4516C21.0552 14.4516 20.1291 13.5255 20.1291 12.3871C20.1291 11.2487 21.0552 10.3226 22.1936 10.3226C23.3319 10.3226 24.2581 11.2487 24.2581 12.3871C24.2581 13.5255 23.3319 14.4516 22.1936 14.4516ZM22.1936 15.4839C22.6856 15.4839 23.151 15.3679 23.5645 15.1628C23.6807 15.424 23.7419 15.707 23.7419 16C23.7419 17.1384 22.8158 18.0645 21.6774 18.0645C20.5391 18.0645 19.6129 17.1384 19.6129 16V15.4155C19.7647 15.1418 19.8857 14.8491 19.9727 14.5421C20.5358 15.1223 21.323 15.4839 22.1936 15.4839ZM21.6774 19.0968C21.7558 19.0968 21.8333 19.0928 21.9102 19.0871C22.0953 19.4016 22.1936 19.7565 22.1936 20.129C22.1936 21.2674 21.2674 22.1935 20.1291 22.1935C18.9907 22.1935 18.0646 21.2674 18.0646 20.129C18.0646 19.2319 18.6421 18.4485 19.4719 18.1711C20.0339 18.742 20.8149 19.0968 21.6774 19.0968ZM19.4484 23.1496C19.001 23.3091 18.5389 23.4382 18.0645 23.5348V22.4349C18.451 22.7812 18.9248 23.0316 19.4484 23.1496ZM16.8806 13.2681C16.7817 13.367 16.6554 13.4194 16.5155 13.4194C16.3776 13.4194 16.248 13.3657 16.1507 13.2683C15.9494 13.067 15.9494 12.7395 16.1505 12.5383L21.365 7.32381C21.5724 7.60044 21.8184 7.84644 22.095 8.05381L16.8806 13.2681ZM12.1542 11.9194C11.5858 11.2586 10.7445 10.8387 9.80644 10.8387C9.631 10.8387 9.45925 10.8542 9.29181 10.8823C9.2915 10.8678 9.29031 10.8534 9.29031 10.8387C9.29031 9.70037 10.2164 8.77425 11.3548 8.77425C12.28 8.77425 13.0878 9.39844 13.3387 10.2659C12.8175 10.7064 12.4069 11.2736 12.1542 11.9194ZM9.80644 16C8.66806 16 7.74194 15.0739 7.74194 13.9355C7.74194 12.7971 8.66806 11.871 9.80644 11.871C10.9448 11.871 11.8709 12.7971 11.8709 13.9355C11.8709 15.0739 10.9448 16 9.80644 16ZM14.2299 9.68975C13.8987 8.86681 13.2238 8.2235 12.3959 7.92481C12.3906 7.86412 12.3871 7.80312 12.3871 7.742C12.3871 6.60363 13.3132 5.6775 14.4516 5.6775C15.59 5.6775 16.5161 6.60363 16.5161 7.742C16.5161 8.34519 16.2606 8.90269 15.8109 9.29519C15.2474 9.32063 14.7129 9.45956 14.2299 9.68975ZM13.9355 18.9131C13.5433 19.3595 12.9879 19.6129 12.3871 19.6129C11.2487 19.6129 10.3226 18.6868 10.3226 17.5484C10.3226 17.3516 10.3504 17.1593 10.4041 16.9739C11.2727 16.8034 12.0123 16.2691 12.4566 15.5363C12.8176 16.1383 13.3278 16.6406 13.9355 16.993V18.9131ZM12.9032 13.4194C12.9032 11.7118 14.2924 10.3226 16 10.3226C16.2709 10.3226 16.5403 10.3593 16.8004 10.4286L15.4205 11.8085C14.8171 12.4122 14.8171 13.3945 15.4208 13.9983C15.7133 14.2906 16.1021 14.4516 16.5156 14.4516C16.929 14.4516 17.3179 14.2907 17.6105 13.9982L18.9905 12.6182C19.0599 12.8786 19.0967 13.1482 19.0967 13.4194C19.0967 15.1271 17.7075 16.5162 15.9999 16.5162C14.2924 16.5162 12.9032 15.1269 12.9032 13.4194ZM18.6382 16.5928C18.6864 16.8404 18.7642 17.0773 18.8678 17.3001C18.5714 17.4322 18.3013 17.6089 18.0645 17.8212V16.9929C18.2671 16.8754 18.4592 16.7419 18.6382 16.5928ZM18.0645 24.5863C20.1521 24.2021 22.0894 23.2353 23.6558 21.8051L24.3876 22.5369C22.669 24.1208 20.4956 25.2286 18.0646 25.6354V24.5863H18.0645V24.5863ZM28.376 12.9032H27.3417C27.2681 11.2832 26.8489 9.69656 26.1149 8.25881C26.4186 8.07606 26.6935 7.85025 26.9307 7.58931C27.8047 9.22575 28.2988 11.0402 28.376 12.9032ZM26.8381 5.16131C26.8381 6.58425 25.6804 7.74194 24.2575 7.74194C22.8346 7.74194 21.6769 6.58425 21.6769 5.16131C21.6769 3.73838 22.8346 2.58069 24.2575 2.58069C25.6804 2.58069 26.8381 3.73831 26.8381 5.16131ZM21.1599 3.30406C19.7223 2.57037 18.1359 2.15131 16.5161 2.07769V1.04338C18.3788 1.12056 20.1931 1.61444 21.8293 2.48825C21.5684 2.72544 21.3426 3.00038 21.1599 3.30406ZM7.6125 22.5368L8.34425 21.805C9.9105 23.2352 11.8479 24.2021 13.9355 24.5863V25.6353C11.5045 25.2285 9.33113 24.1207 7.6125 22.5368ZM30.9678 30.9678H1.03225V29.4194C1.03225 29.1348 1.26381 28.9032 1.54838 28.9032H14.9677V17.4177C15.2978 17.503 15.6437 17.5484 16 17.5484C16.3563 17.5484 16.7022 17.5029 17.0322 17.4177V28.9032H30.4516C30.7362 28.9032 30.9678 29.1348 30.9678 29.4194V30.9678Z" fill="white"/>
</g>
<defs>
<clipPath id="clip0_130_29606">
<rect width="32" height="32" fill="white"/>
</clipPath>
</defs>
</svg>
